<?xml version="1.0" encoding="utf-8"?>
<!-- Generator: Adobe Illustrator 28.0.0, SVG Export Plug-In . SVG Version: 6.00 Build 0)  -->
<svg version="1.1" xmlns="http://www.w3.org/2000/svg" xmlns:xlink="http://www.w3.org/1999/xlink" x="0px" y="0px"
	 viewBox="0 0 612 792" style="enable-background:new 0 0 612 792;" xml:space="preserve">
<g id="Layer_1">
</g>
<g id="Layer_2">
	<path d="M454.63,106.96c14.2,12.47,26.63,26.46,37.38,41.95c19.31,27.85,32.33,58.16,35.65,92.17c1.47,15.14-1.51,29.78-5.11,44.42
		c-2.45,9.98-4.51,20.18-5.22,30.39c-0.37,5.27,1.59,11.29,4.17,16.08c11.19,20.77,25.76,39.21,40.99,57.15
		c3.87,4.56,7.73,9.21,10.97,14.23c8.25,12.82,5.24,23.8-8.43,30.46c-5.96,2.9-12.44,4.74-18.58,7.29
		c-9.81,4.08-12.63,11.16-8.32,20.92c1.54,3.49,3.73,6.69,5.41,10.13c4.65,9.48,2.13,17.56-7.04,22.95
		c-8.98,5.28-8.98,5.28-2.8,13.11c5.01,6.35,5.22,12.25-1.1,17.68c-12.12,10.43-11.98,21.39-3.94,34.56
		c12.22,20.04,0.77,41.3-22.99,41.99c-14.24,0.41-28.56-1.08-42.8-2.26c-15.95-1.32-31.9-3.31-47.73,0.31
		c-21.43,4.9-35.91,18.13-44.16,38.32c-6.62,16.2-9.22,33.31-10.98,50.58c-1.91,18.82-1.78,37.57,2.48,56.13
		c0.14,0.59,0.02,1.24,0.02,2.99c-2.13-1.41-3.62-2.24-4.93-3.29c-32.38-26.14-50.77-60.12-56.95-101.07
		c-6.06-40.16,0.75-78.22,18.2-114.6c16.75-34.9,41.58-63.75,68.49-90.99c17.33-17.54,36.08-33.85,52-52.57
		c28.24-33.2,48.22-71.03,55.73-114.57c9.72-56.31-1.08-108.25-33.55-155.47C459.36,112.84,456.92,109.95,454.63,106.96z"/>
	<path d="M407.58,217.79c-11.52-0.79-22.08,3.35-29.78,10.52c-1.38,1.28-3.43,1.5-5,0.46l-59.04-39.33
		c-1.47-0.98-2.15-2.81-1.61-4.48c1.03-3.17,1.58-6.55,1.58-10.06c0-2.61-0.31-5.15-0.89-7.58c-0.42-1.76,0.44-3.57,2.01-4.45
		l28.02-15.7c1.47-0.82,3.3-0.64,4.56,0.47c4.91,4.3,11.47,6.77,18.61,6.33c13.11-0.81,23.67-11.66,24.15-24.78
		c0.56-15.23-12.1-27.66-27.42-26.71c-11.84,0.73-21.83,9.69-23.79,21.39c-0.51,3.01-0.47,5.94,0.01,8.72
		c0.28,1.65-0.53,3.29-1.99,4.11l-28.1,15.74c-1.54,0.86-3.48,0.63-4.73-0.61c-5.9-5.91-14.06-9.56-23.07-9.56
		c-5.31,0-10.32,1.27-14.75,3.52c-1.6,0.82-3.56,0.41-4.78-0.92l-29.73-32.23c-1.2-1.3-1.45-3.25-0.53-4.76
		c3.27-5.37,5.01-11.77,4.61-18.61c-0.94-16.02-13.91-29.06-29.93-30.07c-19.35-1.22-35.3,14.71-34.1,34.06
		c0.99,16.01,14,28.99,30,29.97c5.93,0.36,11.53-0.89,16.42-3.36c1.57-0.79,3.49-0.41,4.68,0.89l29.8,32.31
		c1.2,1.3,1.44,3.24,0.51,4.74c-3.07,4.97-4.83,10.83-4.83,17.1c0,6.23,1.75,12.04,4.77,16.99c0.92,1.5,0.68,3.44-0.49,4.74
		l-33.07,36.68c-1.28,1.42-3.37,1.71-5.03,0.75c-6.82-3.93-14.73-6.19-23.17-6.19c-8.35,0-16.18,2.21-22.94,6.06
		c-1.68,0.96-3.78,0.65-5.05-0.81l-38.46-44c-1.24-1.42-1.37-3.52-0.25-5.03c5.61-7.58,8.76-17.08,8.26-27.34
		c-1.05-21.61-18.58-39.19-40.19-40.3c-24.65-1.26-45,18.5-44.7,42.94c0.28,22.91,19.13,41.71,42.04,41.94
		c7.55,0.08,14.64-1.83,20.81-5.21c1.65-0.91,3.71-0.59,4.95,0.83l38.52,44.07c1.27,1.45,1.3,3.58,0.13,5.11
		c-4.95,6.48-8.23,14.3-9.2,22.83c-0.22,1.91-1.71,3.42-3.63,3.58l-59.43,5.15c-1.68,0.15-3.3-0.77-3.98-2.32
		c-4.49-10.31-15.19-17.29-27.37-16.21c-13.23,1.17-23.82,12.06-24.64,25.31c-0.99,15.79,11.53,28.91,27.11,28.91
		c12.79,0,23.52-8.85,26.4-20.76c0.4-1.64,1.81-2.83,3.49-2.97c10.82-0.94,48.04-4.16,59.47-5.15c1.92-0.17,3.65,1.07,4.19,2.91
		c2.29,7.76,6.55,14.67,12.21,20.16c1.38,1.34,1.67,3.45,0.63,5.07l-31.92,49.92c-0.94,1.48-2.75,2.19-4.43,1.7
		c-3.46-1.01-7.16-1.45-11-1.19c-15.66,1.07-28.3,13.84-29.19,29.51c-1.08,18.89,14.54,34.42,33.46,33.2
		c15.74-1.02,28.45-13.89,29.29-29.64c0.46-8.59-2.54-16.47-7.72-22.39c-1.15-1.32-1.25-3.25-0.31-4.72l31.91-49.91
		c1.04-1.63,3.08-2.25,4.88-1.55c5.18,2,10.8,3.1,16.68,3.1c13.56,0,25.76-5.83,34.24-15.1c1.3-1.42,3.4-1.77,5.05-0.78l21.94,13.14
		c1.54,0.92,2.31,2.77,1.8,4.5c-0.94,3.19-1.45,6.56-1.45,10.05c0,16.43,11.12,30.25,26.24,34.36c1.79,0.49,3.05,2.07,3.03,3.92
		l-0.53,59.6c-0.02,1.73-1.1,3.3-2.74,3.84c-11.66,3.78-19.91,15.14-18.92,28.27c1.02,13.51,12.04,24.41,25.56,25.28
		c16,1.04,29.31-11.64,29.31-27.42c0-12.06-7.77-22.3-18.58-26c-1.6-0.55-2.64-2.1-2.63-3.79l0.53-59.68
		c0.02-1.85,1.31-3.41,3.1-3.86c15.44-3.9,26.86-17.88,26.86-34.53c0-3.93-0.64-7.71-1.82-11.25c-0.57-1.71,0.12-3.58,1.64-4.56
		l48.32-31.3c1.58-1.02,3.63-0.78,4.99,0.52c7.11,6.79,16.73,10.97,27.34,10.97c22.81,0,41.11-19.29,39.48-42.44
		C442.96,235.88,426.12,219.07,407.58,217.79z M317.6,306.61c-1.51,0.98-3.5,0.85-4.83-0.37c-6.34-5.82-14.79-9.38-24.08-9.38
		c-9.74,0-18.55,3.91-24.98,10.24c-1.29,1.27-3.29,1.46-4.84,0.53l-21.91-13.12c-1.62-0.97-2.36-2.94-1.73-4.71
		c1.72-4.85,2.67-10.07,2.67-15.52c0-10.16-3.27-19.55-8.8-27.19c-1.12-1.55-1.04-3.65,0.23-5.07l33.1-36.71
		c1.17-1.29,3.05-1.72,4.62-0.96c4.26,2.04,9.02,3.18,14.05,3.18c8.11,0,15.52-2.96,21.23-7.86c1.34-1.15,3.3-1.23,4.76-0.25
		l59.05,39.34c1.56,1.04,2.16,3.02,1.51,4.78c-1.59,4.28-2.46,8.91-2.46,13.74c0,4.65,0.81,9.11,2.29,13.26
		c0.63,1.77,0.01,3.75-1.57,4.77L317.6,306.61z"/>
</g>
</svg>
